<svg xmlns="http://www.w3.org/2000/svg" version="1.1" xmlns:xlink="http://www.w3.org/1999/xlink" xmlns:svgjs="http://svgjs.dev/svgjs" width="1500" height="1500" viewBox="0 0 1500 1500"><rect width="1500" height="1500" fill="#ffffff"></rect><g transform="matrix(0.6666666666666666,0,0,0.6666666666666666,249.39393939393938,438.5856950067477)"><svg viewBox="0 0 396 247" data-background-color="#ffffff" preserveAspectRatio="xMidYMid meet" height="935" width="1500" xmlns="http://www.w3.org/2000/svg" xmlns:xlink="http://www.w3.org/1999/xlink"><g id="tight-bounds" transform="matrix(1,0,0,1,0.2400000000000091,-0.09999999999999432)"><svg viewBox="0 0 395.52 247.2" height="247.2" width="395.52"><g><svg></svg></g><g><svg viewBox="0 0 395.52 247.2" height="247.2" width="395.52"><g transform="matrix(1,0,0,1,75.54432,72.17076010912083)"><svg viewBox="0 0 244.43135999999998 102.85847978175832" height="102.85847978175832" width="244.43135999999998"><g><svg viewBox="0 0 244.43135999999998 102.85847978175832" height="102.85847978175832" width="244.43135999999998"><g><svg viewBox="0 0 244.43135999999998 102.85847978175832" height="102.85847978175832" width="244.43135999999998"><g><svg viewBox="0 0 244.43135999999998 102.85847978175832" height="102.85847978175832" width="244.43135999999998"><g id="textblocktransform"><svg viewBox="0 0 244.43135999999998 102.85847978175832" height="102.85847978175832" width="244.43135999999998" id="textblock"><g><svg viewBox="0 0 244.43135999999998 71.16748865002114" height="71.16748865002114" width="244.43135999999998"><g transform="matrix(1,0,0,1,0,0)"><svg width="244.43135999999998" viewBox="3.25 -33.9 118.14 34.4" height="71.16748865002114" data-palette-color="#000000"><path d="M14.75-27.45L10.95-27.45 10.95-17.95 14.6-17.95Q19.6-17.95 19.6-22.85L19.6-22.85Q19.6-25 18.3-26.23 17-27.45 14.75-27.45L14.75-27.45ZM29.8 0L20.6 0 13.3-11.7 10.95-11.7 10.95 0 3.25 0 3.25-33.7 14.9-33.7Q20.55-33.7 23.98-30.7 27.4-27.7 27.4-22.9L27.4-22.9Q27.4-15.7 21.25-12.95L21.25-12.95 29.8 0ZM53.4-13L53.4-13 53.4-33.7 61.1-33.7 61.1-13.05Q61.1-6.45 57.4-2.98 53.7 0.5 47.4 0.5L47.4 0.5Q41.2 0.5 37.45-2.95 33.7-6.4 33.7-12.7L33.7-12.7 33.7-33.7 41.4-33.7 41.4-12.75Q41.4-6.5 47.4-6.5 53.4-6.5 53.4-13ZM75.05 0L67.34 0 67.34-33.7 75.05-33.7 75.05 0ZM95.44-33.7L84.39-16.85 96.34 0 86.69 0 75.39-16.75 86.3-33.7 95.44-33.7ZM119.89-32.2L119.89-32.2 119.89-25Q115.84-27.35 111.49-27.35L111.49-27.35Q109.54-27.35 108.52-26.55 107.49-25.75 107.49-24.5 107.49-23.25 108.74-22.28 109.99-21.3 112.49-20.2L112.49-20.2Q114.04-19.5 115.07-18.98 116.09-18.45 117.42-17.53 118.74-16.6 119.52-15.58 120.29-14.55 120.84-13.05 121.39-11.55 121.39-9.8L121.39-9.8Q121.39-5.25 118.04-2.43 114.69 0.4 109.14 0.4L109.14 0.4Q103.19 0.4 99.44-1.7L99.44-1.7 99.44-9.45Q103.99-6.15 109.14-6.15L109.14-6.15Q110.89-6.15 112.04-7.08 113.19-8 113.19-9.5L113.19-9.5Q113.19-10 113.04-10.45 112.89-10.9 112.49-11.3 112.09-11.7 111.72-11.98 111.34-12.25 110.62-12.63 109.89-13 109.39-13.25 108.89-13.5 107.92-13.95 106.94-14.4 106.34-14.65L106.34-14.65Q103.09-16.15 101.12-18.35 99.14-20.55 99.14-24.2L99.14-24.2Q99.14-28.55 102.34-31.23 105.54-33.9 111.19-33.9L111.19-33.9Q116.24-33.9 119.89-32.2Z" opacity="1" transform="matrix(1,0,0,1,0,0)" fill="#000000" class="wordmark-text-0" data-fill-palette-color="primary" id="text-0"></path></svg></g></svg></g><g transform="matrix(1,0,0,1,0,87.96842470056353)"><svg viewBox="0 0 244.43135999999998 14.890055081194783" height="14.890055081194783" width="244.43135999999998"><g transform="matrix(1,0,0,1,0,0)"><svg width="244.43135999999998" viewBox="1.25 -35.6 594.2 36.2" height="14.890055081194783" data-palette-color="#61777f"><path d="M7.65 0L1.25 0 7.4-35 20.05-35Q23.75-35 26.15-33.73 28.55-32.45 29.73-30.35 30.9-28.25 30.9-25.8L30.9-25.8Q30.9-21.6 28.53-18.7 26.15-15.8 22.15-14.6L22.15-14.6 26.8 0 19.8 0 15.75-13.8 10.1-13.8 7.65 0ZM12.85-29.65L10.9-18.5 16.95-18.5Q20.3-18.5 22.3-20.25 24.3-22 24.3-25.1L24.3-25.1Q24.3-27.1 23.03-28.38 21.75-29.65 18.9-29.65L18.9-29.65 12.85-29.65ZM45.65 0.6L45.65 0.6Q42.35 0.6 39.72-0.55 37.1-1.7 35.6-4.08 34.1-6.45 34.1-10.05L34.1-10.05Q34.1-11.6 34.4-13.4L34.4-13.4 38.2-35 44.6-35 40.8-13.4Q40.65-12.8 40.6-12.23 40.55-11.65 40.55-11.15L40.55-11.15Q40.55-8.2 42.2-6.75 43.85-5.3 46.8-5.3L46.8-5.3Q50.25-5.3 52.6-7.3 54.95-9.3 55.65-13.4L55.65-13.4 59.5-35 65.9-35 62.1-13.4Q61.25-8.6 58.82-5.5 56.4-2.4 52.97-0.9 49.55 0.6 45.65 0.6ZM73.15 0L66.75 0 72.9-35 79.3-35 76.84-20.85 92.25-35 100.15-35 84.8-21.1 94.34 0 86.75 0 79.5-16.35 75.34-12.55 73.15 0ZM111.34 0.6L111.34 0.6Q107.89 0.6 105.24-0.48 102.59-1.55 101.09-3.63 99.59-5.7 99.59-8.6L99.59-8.6Q99.59-9.1 99.64-9.58 99.69-10.05 99.74-10.55L99.74-10.55 106.54-10.55Q106.49-10 106.49-9.55L106.49-9.55Q106.49-7.4 108.02-6.08 109.54-4.75 112.14-4.75L112.14-4.75Q115.04-4.75 116.69-6.23 118.34-7.7 118.34-10.1L118.34-10.1Q118.34-11.9 117.09-12.95 115.84-14 113.92-14.7 111.99-15.4 109.89-16.15L109.89-16.15Q106.59-17.35 104.84-19.45 103.09-21.55 103.09-24.4L103.09-24.4Q103.09-27.75 104.82-30.28 106.54-32.8 109.57-34.2 112.59-35.6 116.54-35.6L116.54-35.6Q121.29-35.6 124.19-33.3 127.09-31 127.09-27.05L127.09-27.05Q127.09-26.7 127.07-26.3 127.04-25.9 126.99-25.5L126.99-25.5 120.14-25.5Q120.19-25.95 120.19-26.35L120.19-26.35Q120.19-27.9 118.99-29.05 117.79-30.2 115.49-30.2L115.49-30.2Q112.94-30.2 111.47-28.88 109.99-27.55 109.99-25.55L109.99-25.55Q109.99-24 110.99-23.08 111.99-22.15 113.69-21.48 115.39-20.8 117.44-20.05L117.44-20.05Q119.59-19.3 121.37-18.07 123.14-16.85 124.22-15.1 125.29-13.35 125.29-10.95L125.29-10.95Q125.29-7.45 123.49-4.85 121.69-2.25 118.54-0.83 115.39 0.6 111.34 0.6ZM164.49-11.8L143.59-11.8 144.49-17.15 165.44-17.15 164.49-11.8ZM187.83 0L181.43 0 187.58-35 200.23-35Q203.93-35 206.33-33.73 208.73-32.45 209.91-30.35 211.08-28.25 211.08-25.8L211.08-25.8Q211.08-21.6 208.71-18.7 206.33-15.8 202.33-14.6L202.33-14.6 206.98 0 199.98 0 195.93-13.8 190.28-13.8 187.83 0ZM193.03-29.65L191.08-18.5 197.13-18.5Q200.48-18.5 202.48-20.25 204.48-22 204.48-25.1L204.48-25.1Q204.48-27.1 203.21-28.38 201.93-29.65 199.08-29.65L199.08-29.65 193.03-29.65ZM225.83 0.6L225.83 0.6Q222.53 0.6 219.91-0.55 217.28-1.7 215.78-4.08 214.28-6.45 214.28-10.05L214.28-10.05Q214.28-11.6 214.58-13.4L214.58-13.4 218.38-35 224.78-35 220.98-13.4Q220.83-12.8 220.78-12.23 220.73-11.65 220.73-11.15L220.73-11.15Q220.73-8.2 222.38-6.75 224.03-5.3 226.98-5.3L226.98-5.3Q230.43-5.3 232.78-7.3 235.13-9.3 235.83-13.4L235.83-13.4 239.68-35 246.08-35 242.28-13.4Q241.43-8.6 239.01-5.5 236.58-2.4 233.16-0.9 229.73 0.6 225.83 0.6ZM266.23 0L259.83 0 265.98-35 272.38-35 269.93-20.85 285.33-35 293.23-35 277.88-21.1 287.43 0 279.83 0 272.58-16.35 268.43-12.55 266.23 0ZM298.52 0L292.12 0 298.32-35 304.72-35 298.52 0ZM311.72 0L305.32 0 311.52-35 317.97-35 329.97-10.05 334.37-35 340.77-35 334.57 0 328.17 0 316.17-24.95 311.72 0ZM358.22 0.6L358.22 0.6Q353.77 0.6 350.37-1.35 346.97-3.3 345.04-6.73 343.12-10.15 343.12-14.5L343.12-14.5Q343.12-18.9 344.74-22.73 346.37-26.55 349.24-29.45 352.12-32.35 355.94-33.98 359.77-35.6 364.12-35.6L364.12-35.6Q368.57-35.6 371.97-33.65 375.37-31.7 377.29-28.3 379.22-24.9 379.22-20.55L379.22-20.55Q379.22-16.15 377.59-12.3 375.97-8.45 373.07-5.55 370.17-2.65 366.37-1.03 362.57 0.6 358.22 0.6ZM359.02-5.15L359.02-5.15Q361.82-5.15 364.27-6.28 366.72-7.4 368.59-9.45 370.47-11.5 371.54-14.2 372.62-16.9 372.62-20L372.62-20Q372.62-24.5 370.17-27.18 367.72-29.85 363.37-29.85L363.37-29.85Q360.52-29.85 358.07-28.7 355.62-27.55 353.74-25.55 351.87-23.55 350.79-20.85 349.72-18.15 349.72-15.05L349.72-15.05Q349.72-10.55 352.22-7.85 354.72-5.15 359.02-5.15ZM406.76 0.6L406.76 0.6Q403.31 0.6 400.66-0.48 398.01-1.55 396.51-3.63 395.01-5.7 395.01-8.6L395.01-8.6Q395.01-9.1 395.06-9.58 395.11-10.05 395.16-10.55L395.16-10.55 401.96-10.55Q401.91-10 401.91-9.55L401.91-9.55Q401.91-7.4 403.44-6.08 404.96-4.75 407.56-4.75L407.56-4.75Q410.46-4.75 412.11-6.23 413.76-7.7 413.76-10.1L413.76-10.1Q413.76-11.9 412.51-12.95 411.26-14 409.34-14.7 407.41-15.4 405.31-16.15L405.31-16.15Q402.01-17.35 400.26-19.45 398.51-21.55 398.51-24.4L398.51-24.4Q398.51-27.75 400.24-30.28 401.96-32.8 404.99-34.2 408.01-35.6 411.96-35.6L411.96-35.6Q416.71-35.6 419.61-33.3 422.51-31 422.51-27.05L422.51-27.05Q422.51-26.7 422.49-26.3 422.46-25.9 422.41-25.5L422.41-25.5 415.56-25.5Q415.61-25.95 415.61-26.35L415.61-26.35Q415.61-27.9 414.41-29.05 413.21-30.2 410.91-30.2L410.91-30.2Q408.36-30.2 406.89-28.88 405.41-27.55 405.41-25.55L405.41-25.55Q405.41-24 406.41-23.08 407.41-22.15 409.11-21.48 410.81-20.8 412.86-20.05L412.86-20.05Q415.01-19.3 416.79-18.07 418.56-16.85 419.64-15.1 420.71-13.35 420.71-10.95L420.71-10.95Q420.71-7.45 418.91-4.85 417.11-2.25 413.96-0.83 410.81 0.6 406.76 0.6ZM446.31 0L424.66 0 430.86-35 452.51-35 451.56-29.95 436.36-29.95 434.66-20.2 448.36-20.2 447.51-15.3 433.81-15.3 431.96-5.05 447.21-5.05 446.31 0ZM459.11 0L452.71 0 458.86-35 471.51-35Q475.21-35 477.61-33.73 480.01-32.45 481.18-30.35 482.36-28.25 482.36-25.8L482.36-25.8Q482.36-21.6 479.98-18.7 477.61-15.8 473.61-14.6L473.61-14.6 478.26 0 471.26 0 467.21-13.8 461.56-13.8 459.11 0ZM464.31-29.65L462.36-18.5 468.41-18.5Q471.76-18.5 473.76-20.25 475.76-22 475.76-25.1L475.76-25.1Q475.76-27.1 474.48-28.38 473.21-29.65 470.36-29.65L470.36-29.65 464.31-29.65ZM500.5 0L492.66 0 486.06-35 492.91-35 497.75-6.6 512.65-35 519.5-35 500.5 0ZM523.85 0L517.45 0 523.65-35 530.05-35 523.85 0ZM546.5 0.6L546.5 0.6Q542 0.6 538.82-1.18 535.65-2.95 533.97-6.1 532.3-9.25 532.3-13.45L532.3-13.45Q532.3-18.15 533.85-22.2 535.4-26.25 538.17-29.25 540.95-32.25 544.67-33.93 548.4-35.6 552.8-35.6L552.8-35.6Q559.1-35.6 562.6-32.48 566.1-29.35 566.15-23.7L566.15-23.7 559.05-23.7Q558.95-26.6 557.1-28.2 555.25-29.8 551.8-29.8L551.8-29.8Q548.1-29.8 545.2-27.75 542.3-25.7 540.6-22.15 538.9-18.6 538.9-14.15L538.9-14.15Q538.9-9.9 541.17-7.53 543.45-5.15 547.55-5.15L547.55-5.15Q551-5.15 553.32-6.65 555.65-8.15 556.8-10.9L556.8-10.9 563.9-10.9Q561.9-5.45 557.32-2.43 552.75 0.6 546.5 0.6ZM589.25 0L567.6 0 573.8-35 595.45-35 594.5-29.95 579.3-29.95 577.6-20.2 591.3-20.2 590.45-15.3 576.75-15.3 574.9-5.05 590.15-5.05 589.25 0Z" opacity="1" transform="matrix(1,0,0,1,0,0)" fill="#000000" class="slogan-text-1" data-fill-palette-color="secondary" id="text-1"></path></svg></g></svg></g></svg></g></svg></g></svg></g></svg></g></svg></g><path d="M163.491 66.171L163.491 9.462 391.767 9.462 391.767 237.738 163.491 237.738 163.491 181.029 169.909 181.029 169.909 231.32 385.349 231.32 385.349 15.88 169.909 15.88 169.909 66.171Z" fill="#000000" stroke="transparent" data-fill-palette-color="tertiary"></path></svg></g><defs></defs></svg><rect width="395.52" height="247.2" fill="none" stroke="none" visibility="hidden"></rect></g></svg></g></svg>